<svg xmlns="http://www.w3.org/2000/svg" viewBox="0 0 178.53 206.09"><g id="Layer_2" data-name="Layer 2"><g id="Layer_1-2" data-name="Layer 1"><path d="M117.14,35.51a27.88,27.88,0,0,1-55.75,0c.74.06,1.41.15,2,.24a48.21,48.21,0,0,1,23,10,4.33,4.33,0,0,0,5.73,0,49,49,0,0,1,12.64-7.26A45.38,45.38,0,0,1,117.14,35.51Z"/><polygon points="178.53 121.19 127.86 171.85 127.86 148.05 154.84 121.19 127.86 94.21 127.86 70.4 150.3 92.85 178.53 121.19"/><polygon points="50.67 94.21 23.69 121.19 50.67 148.05 50.67 171.85 0 121.19 28.23 92.85 50.67 70.4 50.67 94.21"/><path d="M61.44,88.9v89.41a27.75,27.75,0,0,0,22.44,27.21,27.36,27.36,0,0,0,5.33.57,25,25,0,0,0,3.55-.29Z"/><path d="M71.3,70.4l34.8,129.89a27.55,27.55,0,0,0,11-22V70.4Z"/><path d="M61.55,31.08c.3-3.57,1.33-9.95,3-13.28.35-.7.75-.71,1.41-.5,7.26,2.26,14.53,4.49,21.8,6.76a4.83,4.83,0,0,0,3,0c7.27-2.26,14.54-4.48,21.8-6.75a1,1,0,0,1,1.5.65c1.56,3.2,2.55,9.44,2.9,13,.08.79-.1,1.11-.93,1.16a44.79,44.79,0,0,0-13.47,3,48.55,48.55,0,0,0-12.44,7.14,1.16,1.16,0,0,1-1.73,0,47.26,47.26,0,0,0-22.64-9.82c-1.17-.17-2.35-.29-3.53-.38C61.66,32,61.45,31.76,61.55,31.08Z"/><path d="M121.67,11.43,95.45,19.52C93.81,20,92.17,20.6,90.51,21a4.63,4.63,0,0,1-2.22,0L56.85,11.37c-.32-.1-.67-.11-.69-.65a.79.79,0,0,1,.66-.86C58.49,9.32,79.2,2.92,87.89.23a4.9,4.9,0,0,1,3,0l30.56,9.44c.38.1.83.13.87.7S122.28,11.26,121.67,11.43Z"/></g></g></svg>